<svg width="40" height="40" viewBox="0 0 40 40" fill="none" xmlns="http://www.w3.org/2000/svg">
<path d="M20.9648 16.8236C18.8248 19.2213 15.4291 19.7648 13.111 18.1001L8.63393 23.5411C9.02407 23.8366 9.42936 24.0998 9.8479 24.3328C7.3215 23.0696 5.58862 20.4598 5.58862 17.4429C5.58862 13.1912 9.03543 9.74442 13.289 9.74442C17.3324 9.74442 20.6504 12.8617 20.9648 16.8236Z" fill="#0DAB77"/>
<path d="M20.9894 17.4429C20.9894 21.6965 17.5407 25.1433 13.289 25.1433C12.0523 25.1433 10.8838 24.8517 9.84788 24.3328C9.42934 24.0998 9.02405 23.8366 8.63391 23.5411L13.111 18.1001C15.4291 19.7648 18.8247 19.2213 20.9648 16.8236C20.9818 17.0282 20.9894 17.2346 20.9894 17.4429Z" fill="#44B281"/>
<path d="M32.0344 22.7041C29.1974 25.2343 25.154 25.5467 22.0254 23.7627C23.389 22.9389 24.6522 21.8594 25.7411 20.5356C27.3717 18.5546 28.3906 16.2915 28.8073 14.0113L32.7238 10.519C32.7257 10.5228 32.7294 10.5247 32.7313 10.5285C35.9017 14.0832 35.5892 19.5356 32.0344 22.7041Z" fill="#10453B"/>
<path d="M28.8073 14.0113C28.3906 16.2915 27.3718 18.5546 25.7411 20.5356C24.6522 21.8594 23.389 22.9389 22.0254 23.7627C21.2338 23.3101 20.499 22.723 19.8588 22.0052C19.855 22.0034 19.8532 21.9996 19.8494 21.9958L28.8073 14.0113Z" fill="#1C6150"/>
<path d="M28.8073 14.0113L19.8493 21.9958C19.8531 21.9996 19.855 22.0034 19.8588 22.0052C20.4989 22.723 21.2337 23.3101 22.0254 23.7627C18.1638 26.0979 13.5163 26.3801 9.8479 24.3328C10.8838 24.8517 12.0523 25.1434 13.289 25.1434C17.5407 25.1434 20.9894 21.6966 20.9894 17.443C20.9894 17.2346 20.9819 17.0282 20.9648 16.8237C21.0311 16.7517 21.0936 16.6778 21.1561 16.6021C23.2829 14.017 23.2185 10.4319 21.0747 8.41874L25.3926 3.17087C28.3906 5.85257 29.5478 9.95844 28.8073 14.0113Z" fill="#3BB289"/>
<path d="M5.08105 21.2989C5.08105 30.3837 12.5504 37.6485 21.425 36.7546C28.0649 36.0861 33.5438 30.7246 34.6157 23.848C34.7483 23.0033 34.8127 22.17 34.8146 21.3519L5.08105 21.2989Z" fill="#0DAB77"/>
<path d="M19.9478 33.3021C15.4632 33.3021 11.8137 29.4897 11.8137 24.8044H13.2928C13.2928 28.6375 16.2794 31.7567 19.9478 31.7567C23.6181 31.7567 26.6028 28.6375 26.6028 24.8044H28.0819C28.0819 29.4897 24.4325 33.3021 19.9478 33.3021Z" fill="white"/>
</svg>
