<svg width="155" height="42" viewBox="0 0 155 42" fill="none" xmlns="http://www.w3.org/2000/svg">
<path d="M55.1793 17.4613C57.5561 15.2664 60.2208 14.5713 63.2093 15.3004C65.2925 15.8099 66.6125 17.3932 66.6504 19.5484C66.7262 23.7262 66.6788 27.9059 66.694 32.0857C66.6959 32.4436 66.5879 32.5667 66.2281 32.5516C65.6277 32.5269 65.0255 32.5572 64.4251 32.5421C63.1146 32.5099 62.215 31.5781 62.2093 30.2164C62.1961 27.8131 62.2055 25.4098 62.2055 23.0046C62.2055 22.7869 62.2093 22.5672 62.2055 22.3494C62.1563 19.7396 60.7037 18.5863 58.1281 19.1185C57.5637 19.2359 57.0296 19.4423 56.5334 19.7359C55.6433 20.2642 55.1168 20.9063 55.149 22.0842C55.238 25.3322 55.1661 28.5839 55.1926 31.8357C55.1983 32.3982 55.0752 32.6197 54.4843 32.5572C53.9711 32.5023 53.4465 32.5535 52.9275 32.544C51.5242 32.5213 50.6189 31.5914 50.617 30.1388C50.6095 25.7678 50.6151 21.3987 50.6151 17.0276C50.6151 15.1433 50.6114 13.2589 50.617 11.3726C50.6208 9.87077 51.3765 9.10187 52.8669 9.06967C53.4408 9.05641 54.0222 9.10944 54.5847 9.02422C55.1566 8.939 55.1926 9.18141 55.1888 9.63972C55.1718 12.2021 55.1793 14.7664 55.1793 17.4613Z" fill="#1C1A38"/>
<path d="M46.46 20.5332C44.8938 19.1696 43.1477 18.5257 41.1478 18.5768C40.5323 18.592 39.9603 18.7529 39.449 19.0919C39.0437 19.3609 38.7539 19.7302 38.7899 20.2434C38.824 20.751 39.2274 20.9934 39.6346 21.1544C40.7823 21.607 42.0114 21.7452 43.2064 22.0179C44.2707 22.2604 45.3218 22.5482 46.2839 23.0747C49.5697 24.8701 49.7894 29.3907 46.6759 31.474C44.8522 32.6955 42.7784 32.9568 40.6421 32.8394C38.3316 32.7125 36.2067 32.0383 34.3223 30.6539C33.9303 30.366 33.8394 30.1123 34.1595 29.7373C34.1935 29.6975 34.2125 29.6426 34.2371 29.5934C35.2276 27.6332 36.1063 27.2715 38.0608 28.3851C39.4338 29.1672 40.9698 29.4419 42.5644 29.2506C43.0359 29.1938 43.4734 29.0517 43.8541 28.7771C44.784 28.1048 44.7006 26.9836 43.6685 26.495C42.5966 25.9894 41.4148 25.8795 40.2728 25.6238C39.3429 25.4155 38.4168 25.1939 37.5343 24.8208C35.7976 24.0841 34.6462 22.8929 34.4966 20.9252C34.3337 18.7776 35.2105 17.1545 37.0552 16.0845C39.0664 14.9179 41.2482 14.827 43.4791 15.2095C44.5586 15.3951 45.5964 15.7266 46.5642 16.2512C47.6456 16.8364 47.9656 17.789 47.4164 18.8628C47.1342 19.4158 46.799 19.9442 46.46 20.5332Z" fill="#1C1A38"/>
<path d="M148.895 17.5693C149.925 16.6451 150.955 15.861 152.201 15.3989C154.154 14.6736 154.271 14.7418 154.271 16.7417C154.271 17.2606 154.26 17.7795 154.273 18.2984C154.292 18.9859 153.949 19.2984 153.285 19.3173C152.436 19.3419 151.597 19.4158 150.798 19.7302C149.412 20.2718 148.832 21.1127 148.832 22.5861C148.832 25.6712 148.817 28.7563 148.846 31.8414C148.851 32.4076 148.721 32.6197 148.133 32.5591C147.62 32.5061 147.098 32.5534 146.579 32.5478C145.171 32.5307 144.334 31.6804 144.327 30.2183C144.314 27.5423 144.323 24.8682 144.323 22.1922C144.323 20.6354 144.317 19.0806 144.325 17.5238C144.331 16.2568 144.999 15.5675 146.272 15.4974C146.435 15.4879 146.599 15.4936 146.762 15.4955C147.414 15.5088 148.24 15.2853 148.671 15.6016C149.141 15.9406 148.726 16.8193 148.895 17.5693Z" fill="#1C1A38"/>
<path d="M105.298 20.2889C104.171 16.558 100.95 14.5505 97.113 15.13C95.5203 15.3705 94.2325 16.183 93.0356 17.4954C93.0356 16.9216 93.0034 16.5636 93.0432 16.2152C93.1075 15.6546 92.9257 15.4235 92.3311 15.4785C91.7894 15.5296 91.2383 15.4709 90.6929 15.4936C89.3236 15.5504 88.479 16.4254 88.4733 17.7984C88.4638 19.9006 88.4714 22.0028 88.4714 24.105C88.4714 28.2544 88.4657 32.4057 88.4752 36.5552C88.4771 37.9566 89.3918 38.8884 90.7478 38.9092C91.2932 38.9168 91.8443 38.8695 92.386 38.9225C92.956 38.9774 93.0526 38.7369 93.0469 38.2293C93.0223 35.826 93.0318 33.4246 93.0432 31.0213C93.0432 30.8357 92.9087 30.5857 93.1852 30.457C96.4597 34.3924 103.249 33.4568 105.152 28.012C106.041 25.4629 106.077 22.8683 105.298 20.2889ZM101.037 25.372C100.643 27.0234 99.7228 28.2733 98.0202 28.6976C96.2324 29.1407 94.6965 28.529 93.3916 27.281C93.1189 27.0196 93.0185 26.7109 93.0299 26.3284C93.0526 25.5102 93.0375 24.6921 93.0375 23.8739C93.0375 23.1921 93.0848 22.5066 93.0242 21.8286C92.9617 21.124 93.2288 20.6335 93.7628 20.2188C95.17 19.126 96.721 18.6734 98.4274 19.3211C100.13 19.9669 100.906 21.3513 101.136 23.0956C101.232 23.8626 101.213 24.6277 101.037 25.372Z" fill="#1C1A38"/>
<path d="M123.271 19.5711C121.383 14.6168 115.364 13.4596 111.601 17.1981C111.518 17.2814 111.442 17.3401 111.325 17.2701C111.273 15.4898 111.273 15.4898 109.453 15.4917H109.289C107.584 15.4993 106.772 16.3023 106.772 17.9859C106.77 23.7792 106.836 29.5744 106.743 35.3658C106.7 38.1346 107.361 39.0797 110.3 38.9395C111.071 38.9035 111.357 38.8108 111.332 37.9415C111.26 35.47 111.307 32.9947 111.307 30.5005C111.658 30.5441 111.771 30.7884 111.938 30.9494C114.771 33.6954 119.633 33.4928 122.048 30.368C124.602 27.0651 124.693 23.3058 123.271 19.5711ZM119.417 24.8076C119.139 26.5234 118.4 27.9419 116.678 28.5669C114.929 29.2013 113.362 28.7051 111.965 27.5575C111.499 27.1749 111.237 26.7317 111.296 26.0803C111.361 25.3492 111.311 24.6087 111.311 23.872C111.311 23.1637 111.351 22.4516 111.3 21.7452C111.254 21.1032 111.506 20.6657 111.974 20.2661C113.504 18.9632 115.646 18.6601 117.226 19.554C118.866 20.482 119.767 22.6448 119.417 24.8076Z" fill="#1C1A38"/>
<path d="M77.4662 14.9993C72.2657 15.0353 68.5556 18.7189 68.5499 23.855C68.5424 29.1426 72.2145 32.8413 77.4738 32.8451C82.7482 32.8489 86.4904 29.1578 86.5075 23.9307C86.5245 18.7643 82.6743 14.9634 77.4662 14.9993ZM81.6081 25.5273C81.0475 27.6124 79.5457 28.8283 77.4908 28.8283C75.4663 28.8283 73.919 27.5726 73.3944 25.497C73.2675 24.9932 73.188 24.48 73.2031 24.1694C73.1937 21.696 74.3205 19.8514 76.0761 19.2567C78.7294 18.3571 81.3581 20.0559 81.7463 22.9327C81.8637 23.8039 81.8391 24.6675 81.6081 25.5273Z" fill="#1C1A38"/>
<path d="M142.588 24.2186C142.535 23.4061 142.441 22.5823 142.253 21.7926C141.518 18.7207 139.984 16.2341 136.75 15.3762C133.449 14.4993 130.369 15.077 127.917 17.6091C125.316 20.2964 124.794 23.5577 125.898 27.0272C126.97 30.3983 129.462 32.2239 132.918 32.7201C135.532 33.0951 138.037 32.7353 140.31 31.2921C141.122 30.777 141.234 30.2335 140.73 29.4324C140.397 28.9002 140.026 28.3927 139.694 27.8605C139.526 27.5878 139.391 27.548 139.136 27.7696C138.304 28.4911 137.287 28.815 136.234 29.0044C134.183 29.3718 132.307 29.101 130.907 27.3529C130.615 26.9874 130.367 26.5802 130.621 26.0784C130.879 25.5689 131.318 25.4553 131.852 25.461C133.411 25.478 134.967 25.4667 136.526 25.4667C138.14 25.4667 139.751 25.4723 141.365 25.4648C142.251 25.4591 142.643 25.0936 142.588 24.2186ZM137.865 22.2206C136.638 22.2017 135.411 22.213 134.183 22.213C133.011 22.213 131.837 22.1922 130.666 22.2225C130.165 22.2357 130.064 22.0842 130.184 21.6127C130.636 19.8211 132.193 18.6923 134.227 18.7151C136.342 18.7397 137.878 19.8817 138.291 21.7036C138.384 22.1221 138.27 22.2263 137.865 22.2206Z" fill="#1C1A38"/>
<path d="M114.029 41.9015L114.027 40.5361L114.997 40.5342L114.999 41.8996L114.029 41.9015Z" fill="#0DAB77"/>
<path d="M118.442 42C118.008 42 117.616 41.9261 117.264 41.7746C116.911 41.6231 116.606 41.4148 116.351 41.1478C116.095 40.8807 115.896 40.5739 115.758 40.2292C115.62 39.8846 115.548 39.519 115.548 39.1308C115.548 38.61 115.665 38.1346 115.902 37.7028C116.139 37.2729 116.472 36.9264 116.902 36.665C117.332 36.4037 117.841 36.273 118.432 36.2711C119 36.2692 119.497 36.3961 119.921 36.6461C120.345 36.8961 120.656 37.2332 120.856 37.6517L119.716 38.0172C119.587 37.7824 119.408 37.6006 119.176 37.4699C118.945 37.3392 118.692 37.2729 118.413 37.2748C118.101 37.2748 117.819 37.3544 117.567 37.5135C117.315 37.6707 117.116 37.8884 116.97 38.1668C116.824 38.4433 116.752 38.7653 116.754 39.1289C116.754 39.4793 116.83 39.7956 116.98 40.0796C117.129 40.3637 117.33 40.5872 117.584 40.7519C117.836 40.9167 118.12 40.9981 118.432 40.9981C118.623 40.9981 118.811 40.9641 118.993 40.8959C119.175 40.8277 119.332 40.7349 119.466 40.6175C119.601 40.5001 119.697 40.3694 119.754 40.2274L120.907 40.5664C120.786 40.8429 120.608 41.0891 120.37 41.3031C120.131 41.5171 119.851 41.6856 119.529 41.8106C119.201 41.9356 118.841 42 118.442 42Z" fill="#0DAB77"/>
<path d="M124.066 41.9886C123.625 41.9886 123.231 41.9148 122.883 41.7633C122.534 41.6118 122.233 41.4034 121.979 41.1364C121.727 40.8694 121.532 40.5645 121.396 40.2236C121.26 39.8827 121.191 39.5171 121.191 39.1308C121.191 38.7445 121.258 38.377 121.392 38.0324C121.527 37.6877 121.72 37.3828 121.972 37.1176C122.224 36.8525 122.525 36.6442 122.877 36.4927C123.229 36.3412 123.621 36.2635 124.055 36.2635C124.489 36.2635 124.881 36.3374 125.233 36.4889C125.585 36.6404 125.888 36.8468 126.14 37.1101C126.392 37.3733 126.587 37.6782 126.723 38.0229C126.86 38.3676 126.928 38.7331 126.928 39.1213C126.928 39.5096 126.862 39.8732 126.727 40.216C126.593 40.5569 126.4 40.8637 126.148 41.1307C125.896 41.3996 125.595 41.6099 125.242 41.7614C124.892 41.911 124.5 41.9886 124.066 41.9886ZM122.398 39.1403C122.398 39.4906 122.474 39.8069 122.623 40.0853C122.773 40.3637 122.972 40.5853 123.222 40.7463C123.472 40.9072 123.752 40.9868 124.064 40.9868C124.369 40.9868 124.65 40.9034 124.902 40.7387C125.153 40.5739 125.354 40.3485 125.502 40.0645C125.65 39.7804 125.725 39.466 125.723 39.1232C125.723 38.7729 125.648 38.4566 125.498 38.1782C125.348 37.8998 125.148 37.6763 124.894 37.5116C124.642 37.3468 124.362 37.2654 124.057 37.2654C123.744 37.2654 123.464 37.3506 123.214 37.5191C122.966 37.6877 122.767 37.9112 122.618 38.1877C122.47 38.4661 122.396 38.7823 122.398 39.1403Z" fill="#0DAB77"/>
<path d="M136.244 41.8598L135.07 41.8617L135.064 38.7729C135.062 38.2596 134.977 37.8846 134.806 37.646C134.636 37.4074 134.386 37.2881 134.058 37.29C133.731 37.29 133.428 37.4131 133.147 37.6555C132.867 37.8979 132.67 38.2142 132.557 38.6005L132.562 41.8674L131.39 41.8693L131.384 38.7804C131.384 38.2672 131.297 37.8922 131.127 37.6536C130.956 37.415 130.71 37.2957 130.39 37.2957C130.062 37.2957 129.759 37.415 129.479 37.6536C129.199 37.8922 128.998 38.2028 128.879 38.5873L128.884 41.8731L127.71 41.875L127.699 36.3412L128.765 36.3393L128.767 37.4585C128.987 37.0703 129.276 36.7729 129.634 36.5646C129.992 36.3563 130.403 36.2521 130.865 36.2503C131.327 36.2484 131.691 36.3677 131.958 36.6082C132.225 36.8468 132.392 37.146 132.456 37.5059C132.697 37.0968 132.994 36.7843 133.344 36.5703C133.697 36.3544 134.1 36.2465 134.555 36.2465C134.882 36.2465 135.155 36.3052 135.376 36.4245C135.598 36.5438 135.769 36.7067 135.89 36.915C136.011 37.1233 136.098 37.3619 136.153 37.6328C136.208 37.9036 136.234 38.1914 136.234 38.4926L136.244 41.8598Z" fill="#0DAB77"/>
<path d="M137.285 41.8561L137.284 40.4906L138.253 40.4887L138.255 41.8542L137.285 41.8561Z" fill="#0DAB77"/>
<path d="M142.342 41.9546C141.916 41.9546 141.53 41.8542 141.185 41.6534C140.84 41.4508 140.568 41.18 140.367 40.8391L140.369 41.8523L139.335 41.8542L139.319 34.0685L140.492 34.0667L140.497 37.3828C140.717 37.0267 140.992 36.7465 141.323 36.5381C141.653 36.3317 142.043 36.2275 142.49 36.2275C142.859 36.2275 143.198 36.3033 143.503 36.4586C143.808 36.6139 144.071 36.8241 144.289 37.0911C144.507 37.3582 144.673 37.665 144.793 38.0097C144.91 38.3543 144.971 38.7217 144.971 39.1081C144.971 39.4963 144.906 39.8618 144.776 40.2065C144.645 40.5512 144.459 40.8561 144.217 41.1156C143.975 41.3769 143.696 41.5815 143.382 41.7292C143.065 41.8788 142.719 41.9527 142.342 41.9546ZM142.031 40.9527C142.287 40.9527 142.522 40.9016 142.734 40.7993C142.946 40.697 143.132 40.5626 143.287 40.394C143.442 40.2255 143.562 40.0285 143.643 39.805C143.725 39.5797 143.764 39.3486 143.764 39.11C143.764 38.7805 143.694 38.4718 143.554 38.1858C143.416 37.8979 143.221 37.6688 142.971 37.4926C142.721 37.3184 142.433 37.2313 142.107 37.2313C141.872 37.2313 141.653 37.2862 141.446 37.396C141.24 37.5059 141.058 37.6498 140.897 37.8278C140.738 38.0078 140.605 38.2047 140.499 38.4225L140.501 39.8732C140.545 40.0342 140.619 40.18 140.727 40.3088C140.833 40.4376 140.958 40.5493 141.1 40.644C141.242 40.7387 141.395 40.8126 141.558 40.8694C141.721 40.9262 141.882 40.9527 142.031 40.9527Z" fill="#0DAB77"/>
<path d="M148.895 37.271C148.44 37.2786 148.037 37.3828 147.685 37.5835C147.332 37.7843 147.082 38.0646 146.935 38.4282L146.942 41.8409L145.77 41.8428L145.759 36.309L146.846 36.3071L146.848 37.5116C147.039 37.1271 147.291 36.8184 147.603 36.5874C147.916 36.3563 148.245 36.2294 148.594 36.2067H148.77C148.815 36.2067 148.857 36.2105 148.893 36.2162L148.895 37.271Z" fill="#0DAB77"/>
<path d="M15.8838 13.6528C13.7437 16.0504 10.348 16.5939 8.02995 14.9292L3.55288 20.3703C3.94301 20.6657 4.3483 20.929 4.76684 21.1619C2.24044 19.8987 0.507568 17.289 0.507568 14.2721C0.507568 10.0204 3.95438 6.57356 8.20797 6.57356C12.2514 6.57356 15.5694 9.69084 15.8838 13.6528Z" fill="#0DAB77"/>
<path d="M15.9084 14.2721C15.9084 18.5257 12.4597 21.9725 8.20795 21.9725C6.97127 21.9725 5.80276 21.6808 4.76682 21.1619C4.34828 20.929 3.94299 20.6657 3.55286 20.3703L8.02993 14.9292C10.348 16.5939 13.7437 16.0504 15.8837 13.6528C15.9008 13.8573 15.9084 14.0638 15.9084 14.2721Z" fill="#44B281"/>
<path d="M26.9534 19.5332C24.1164 22.0634 20.073 22.3759 16.9443 20.5919C18.3079 19.768 19.5711 18.6885 20.6601 17.3647C22.2907 15.3838 23.3096 13.1206 23.7262 10.8404L27.6427 7.34814C27.6446 7.35193 27.6484 7.35382 27.6503 7.35761C30.8206 10.9124 30.5081 16.3648 26.9534 19.5332Z" fill="#10453B"/>
<path d="M23.7262 10.8404C23.3096 13.1206 22.2907 15.3838 20.6601 17.3647C19.5711 18.6886 18.3079 19.768 16.9443 20.5919C16.1527 20.1392 15.4179 19.5521 14.7777 18.8344C14.774 18.8325 14.7721 18.8287 14.7683 18.8249L23.7262 10.8404Z" fill="#1C6150"/>
<path d="M23.7262 10.8404L14.7683 18.8249C14.7721 18.8287 14.774 18.8325 14.7778 18.8344C15.4179 19.5522 16.1527 20.1392 16.9443 20.5919C13.0828 22.927 8.43524 23.2092 4.76685 21.1619C5.80278 21.6808 6.97129 21.9725 8.20797 21.9725C12.4597 21.9725 15.9084 18.5257 15.9084 14.2721C15.9084 14.0638 15.9008 13.8573 15.8838 13.6528C15.95 13.5808 16.0125 13.507 16.075 13.4312C18.2018 10.8461 18.1374 7.26104 15.9936 5.24787L20.3116 0C23.3096 2.6817 24.4667 6.78758 23.7262 10.8404Z" fill="#3BB289"/>
<path d="M0 18.128C0 27.2128 7.46937 34.4776 16.344 33.5837C22.9838 32.9152 28.4627 27.5537 29.5347 20.6771C29.6672 19.8324 29.7316 18.9991 29.7335 18.181L0 18.128Z" fill="#0DAB77"/>
<path d="M14.8668 30.1312C10.3821 30.1312 6.73267 26.3189 6.73267 21.6335H8.21177C8.21177 25.4667 11.1984 28.5858 14.8668 28.5858C18.537 28.5858 21.5218 25.4667 21.5218 21.6335H23.0009C23.0009 26.3189 19.3514 30.1312 14.8668 30.1312Z" fill="white"/>
</svg>
