<svg width="26" height="26" viewBox="0 0 26 26" fill="none" xmlns="http://www.w3.org/2000/svg">
<rect y="7.62939e-05" width="26" height="26" rx="4" fill="#E05151"/>
<g clip-path="url(#clip0_35_275)">
<path d="M7.75 9.50008H8.91667H18.25" stroke="white" stroke-width="1.5" stroke-linecap="round" stroke-linejoin="round"/>
<path d="M17.0833 9.50008V17.6667C17.0833 17.9762 16.9604 18.2729 16.7416 18.4917C16.5228 18.7105 16.226 18.8334 15.9166 18.8334H10.0833C9.77387 18.8334 9.47713 18.7105 9.25833 18.4917C9.03954 18.2729 8.91663 17.9762 8.91663 17.6667V9.50008M10.6666 9.50008V8.33341C10.6666 8.024 10.7895 7.72725 11.0083 7.50846C11.2271 7.28966 11.5239 7.16675 11.8333 7.16675H14.1666C14.476 7.16675 14.7728 7.28966 14.9916 7.50846C15.2104 7.72725 15.3333 8.024 15.3333 8.33341V9.50008" stroke="white" stroke-width="1.5" stroke-linecap="round" stroke-linejoin="round"/>
</g>
<defs>
<clipPath id="clip0_35_275">
<rect width="14" height="14" fill="white" transform="translate(6 6.00008)"/>
</clipPath>
</defs>
</svg>
